General
Complete name                    : 2012 Supernova [2009] DVDRIP XViD-BestDiVX
Format                           : AVI
Format/Info                      : Audio Video Interleave
File size                        : 701 MiB
Duration                         : 1h 27mn
Overall bit rate                 : 1 125 Kbps
Writing application              : VirtualDubMod 1.5.10.2 (build 2540/release)
Writing library                  : VirtualDubMod build 2540/release

Video
Format                           : MPEG-4 Visual
Format profile                   : Streaming Video@L1
Format settings, BVOP            : Yes
Format settings, QPel            : No
Format settings, GMC             : No warppoints
Format settings, Matrix          : Default
Codec ID                         : XVID
Codec ID/Hint                    : XviD
Duration                         : 1h 27mn
Bit rate                         : 990 Kbps
Width                            : 624 pixels
Height                           : 352 pixels
Display aspect ratio             : 16/9
Frame rate                       : 23.976 fps
Resolution                       : 24 bits
Colorimetry                      : 4:2:0
Scan type                        : Progressive
Bits/(Pixel*Frame)               : 0.188
Stream size                      : 617 MiB (88%)
Writing library                  : XviD 1.2.1 (UTC 2008-12-04)

Audio
Format                           : MPEG Audio
Format version                   : Version 1
Format profile                   : Layer 3
Codec ID                         : 55
Codec ID/Hint                    : MP3
Duration                         : 1h 27mn
Bit rate mode                    : Variable
Bit rate                         : 123 Kbps
Nominal bit rate                 : 125 Kbps
Channel(s)                       : 2 channels
Sampling rate                    : 48.0 KHz
Resolution                       : 16 bits
Stream size                      : 76.3 MiB (11%)
Alignment                        : Aligned on interleaves
Interleave, duration             : 24 ms (0.58 video frame)
Interleave, preload duration     : 150 ms
Writing library                  : LAME3.93a
Encoding settings                : ABR





Brian Krause       ... Kelvin

Heather McComb     ... Laura

Najarra Townsend   ... Tina

Londale Theus      ... Henreaux

Stephen Blackehart ... Agent Greene



Plot:


A scientist tries to save the Earth from the deadly blast of a star gone supernova.